<mxfile host="app.diagrams.net" modified="2023-12-05T20:04:28.707Z" agent="Mozilla/5.0 (Windows NT 10.0; Win64; x64; rv:120.0) Gecko/20100101 Firefox/120.0" etag="IAJeZmlKKCSC1BSSWqPM" version="22.1.5" type="google">
  <diagram name="PÃ¡gina-1" id="aRTGVBChl0Q0Bgw1coSy">
    <mxGraphModel dx="794" dy="422" grid="1" gridSize="10" guides="1" tooltips="1" connect="1" arrows="1" fold="1" page="1" pageScale="1" pageWidth="827" pageHeight="1169" math="0" shadow="0">
      <root>
        <mxCell id="0" />
        <mxCell id="1" parent="0" />
        <mxCell id="U1_bPqDhL-kBLZUuURJ5-32" style="edgeStyle=orthogonalEdgeStyle;rounded=0;orthogonalLoop=1;jettySize=auto;html=1;exitX=0.5;exitY=1;exitDx=0;exitDy=0;entryX=0.5;entryY=0;entryDx=0;entryDy=0;" parent="1" source="U1_bPqDhL-kBLZUuURJ5-1" target="U1_bPqDhL-kBLZUuURJ5-10" edge="1">
          <mxGeometry relative="1" as="geometry" />
        </mxCell>
        <mxCell id="U1_bPqDhL-kBLZUuURJ5-1" value="Display_hour" style="ellipse;whiteSpace=wrap;html=1;" parent="1" vertex="1">
          <mxGeometry x="350" y="100" width="120" height="40" as="geometry" />
        </mxCell>
        <mxCell id="U1_bPqDhL-kBLZUuURJ5-35" style="edgeStyle=orthogonalEdgeStyle;rounded=0;orthogonalLoop=1;jettySize=auto;html=1;exitX=0.5;exitY=1;exitDx=0;exitDy=0;entryX=0.5;entryY=0;entryDx=0;entryDy=0;" parent="1" source="U1_bPqDhL-kBLZUuURJ5-2" target="U1_bPqDhL-kBLZUuURJ5-3" edge="1">
          <mxGeometry relative="1" as="geometry" />
        </mxCell>
        <mxCell id="U1_bPqDhL-kBLZUuURJ5-2" value="chr(1) = filled square" style="rounded=0;whiteSpace=wrap;html=1;" parent="1" vertex="1">
          <mxGeometry x="350" y="260" width="120" height="40" as="geometry" />
        </mxCell>
        <mxCell id="U1_bPqDhL-kBLZUuURJ5-36" style="edgeStyle=orthogonalEdgeStyle;rounded=0;orthogonalLoop=1;jettySize=auto;html=1;exitX=0.5;exitY=1;exitDx=0;exitDy=0;entryX=0.5;entryY=0;entryDx=0;entryDy=0;" parent="1" source="U1_bPqDhL-kBLZUuURJ5-3" target="U1_bPqDhL-kBLZUuURJ5-4" edge="1">
          <mxGeometry relative="1" as="geometry">
            <mxPoint x="410" y="370" as="targetPoint" />
          </mxGeometry>
        </mxCell>
        <mxCell id="U1_bPqDhL-kBLZUuURJ5-3" value="chr(0) = empty square" style="rounded=0;whiteSpace=wrap;html=1;" parent="1" vertex="1">
          <mxGeometry x="350" y="320" width="120" height="40" as="geometry" />
        </mxCell>
        <mxCell id="U1_bPqDhL-kBLZUuURJ5-37" style="edgeStyle=orthogonalEdgeStyle;rounded=0;orthogonalLoop=1;jettySize=auto;html=1;exitX=0.5;exitY=1;exitDx=0;exitDy=0;entryX=0.5;entryY=0;entryDx=0;entryDy=0;" parent="1" source="U1_bPqDhL-kBLZUuURJ5-4" target="U1_bPqDhL-kBLZUuURJ5-5" edge="1">
          <mxGeometry relative="1" as="geometry" />
        </mxCell>
        <mxCell id="U1_bPqDhL-kBLZUuURJ5-4" value="chr(2) = limit line right" style="rounded=0;whiteSpace=wrap;html=1;" parent="1" vertex="1">
          <mxGeometry x="350" y="380" width="120" height="40" as="geometry" />
        </mxCell>
        <mxCell id="U1_bPqDhL-kBLZUuURJ5-38" style="edgeStyle=orthogonalEdgeStyle;rounded=0;orthogonalLoop=1;jettySize=auto;html=1;exitX=0.5;exitY=1;exitDx=0;exitDy=0;entryX=0.5;entryY=0;entryDx=0;entryDy=0;" parent="1" source="U1_bPqDhL-kBLZUuURJ5-5" target="U1_bPqDhL-kBLZUuURJ5-6" edge="1">
          <mxGeometry relative="1" as="geometry" />
        </mxCell>
        <mxCell id="U1_bPqDhL-kBLZUuURJ5-5" value="chr(3) = limit line left" style="rounded=0;whiteSpace=wrap;html=1;" parent="1" vertex="1">
          <mxGeometry x="350" y="440" width="120" height="40" as="geometry" />
        </mxCell>
        <mxCell id="U1_bPqDhL-kBLZUuURJ5-39" style="edgeStyle=orthogonalEdgeStyle;rounded=0;orthogonalLoop=1;jettySize=auto;html=1;exitX=0.5;exitY=1;exitDx=0;exitDy=0;entryX=0.5;entryY=0;entryDx=0;entryDy=0;" parent="1" source="U1_bPqDhL-kBLZUuURJ5-6" target="U1_bPqDhL-kBLZUuURJ5-7" edge="1">
          <mxGeometry relative="1" as="geometry" />
        </mxCell>
        <mxCell id="U1_bPqDhL-kBLZUuURJ5-6" value="&lt;div&gt;First row on the left&amp;nbsp;&lt;/div&gt;&lt;div&gt;move to (1, 1)&amp;nbsp; write chr(2)&lt;/div&gt;" style="rounded=0;whiteSpace=wrap;html=1;" parent="1" vertex="1">
          <mxGeometry x="345" y="500" width="130" height="50" as="geometry" />
        </mxCell>
        <mxCell id="U1_bPqDhL-kBLZUuURJ5-40" style="edgeStyle=orthogonalEdgeStyle;rounded=0;orthogonalLoop=1;jettySize=auto;html=1;exitX=0.5;exitY=1;exitDx=0;exitDy=0;entryX=0.5;entryY=0;entryDx=0;entryDy=0;" parent="1" source="U1_bPqDhL-kBLZUuURJ5-7" target="U1_bPqDhL-kBLZUuURJ5-8" edge="1">
          <mxGeometry relative="1" as="geometry" />
        </mxCell>
        <mxCell id="U1_bPqDhL-kBLZUuURJ5-7" value="&lt;div&gt;First row on the right &lt;br&gt;&lt;/div&gt;&lt;div&gt;move to (1, 7)&amp;nbsp; write chr(3)&lt;/div&gt;" style="rounded=0;whiteSpace=wrap;html=1;" parent="1" vertex="1">
          <mxGeometry x="345" y="570" width="130" height="50" as="geometry" />
        </mxCell>
        <mxCell id="U1_bPqDhL-kBLZUuURJ5-41" style="edgeStyle=orthogonalEdgeStyle;rounded=0;orthogonalLoop=1;jettySize=auto;html=1;exitX=0.5;exitY=1;exitDx=0;exitDy=0;entryX=0.5;entryY=0;entryDx=0;entryDy=0;" parent="1" source="U1_bPqDhL-kBLZUuURJ5-8" target="U1_bPqDhL-kBLZUuURJ5-9" edge="1">
          <mxGeometry relative="1" as="geometry" />
        </mxCell>
        <mxCell id="U1_bPqDhL-kBLZUuURJ5-8" value="&lt;div&gt;Second row on the left&amp;nbsp;&lt;/div&gt;&lt;div&gt;move to (2, 1)&amp;nbsp; write chr(2)&lt;/div&gt;" style="rounded=0;whiteSpace=wrap;html=1;" parent="1" vertex="1">
          <mxGeometry x="345" y="640" width="130" height="50" as="geometry" />
        </mxCell>
        <mxCell id="U1_bPqDhL-kBLZUuURJ5-42" style="edgeStyle=orthogonalEdgeStyle;rounded=0;orthogonalLoop=1;jettySize=auto;html=1;exitX=0.5;exitY=1;exitDx=0;exitDy=0;entryX=0.5;entryY=0;entryDx=0;entryDy=0;" parent="1" source="U1_bPqDhL-kBLZUuURJ5-9" target="U1_bPqDhL-kBLZUuURJ5-12" edge="1">
          <mxGeometry relative="1" as="geometry" />
        </mxCell>
        <mxCell id="U1_bPqDhL-kBLZUuURJ5-9" value="&lt;div&gt;Second row on the right&lt;/div&gt;&lt;div&gt;move to (2, 8)&amp;nbsp; write chr(1)&lt;/div&gt;" style="rounded=0;whiteSpace=wrap;html=1;" parent="1" vertex="1">
          <mxGeometry x="345" y="710" width="130" height="50" as="geometry" />
        </mxCell>
        <mxCell id="U1_bPqDhL-kBLZUuURJ5-33" style="edgeStyle=orthogonalEdgeStyle;rounded=0;orthogonalLoop=1;jettySize=auto;html=1;exitX=0.5;exitY=1;exitDx=0;exitDy=0;entryX=0.5;entryY=0;entryDx=0;entryDy=0;" parent="1" source="U1_bPqDhL-kBLZUuURJ5-10" target="U1_bPqDhL-kBLZUuURJ5-11" edge="1">
          <mxGeometry relative="1" as="geometry" />
        </mxCell>
        <mxCell id="U1_bPqDhL-kBLZUuURJ5-10" value="global hora" style="rounded=0;whiteSpace=wrap;html=1;" parent="1" vertex="1">
          <mxGeometry x="350" y="160" width="120" height="30" as="geometry" />
        </mxCell>
        <mxCell id="U1_bPqDhL-kBLZUuURJ5-34" style="edgeStyle=orthogonalEdgeStyle;rounded=0;orthogonalLoop=1;jettySize=auto;html=1;exitX=0.5;exitY=1;exitDx=0;exitDy=0;entryX=0.5;entryY=0;entryDx=0;entryDy=0;" parent="1" source="U1_bPqDhL-kBLZUuURJ5-11" target="U1_bPqDhL-kBLZUuURJ5-2" edge="1">
          <mxGeometry relative="1" as="geometry" />
        </mxCell>
        <mxCell id="U1_bPqDhL-kBLZUuURJ5-11" value="global minuto" style="rounded=0;whiteSpace=wrap;html=1;" parent="1" vertex="1">
          <mxGeometry x="350" y="210" width="120" height="30" as="geometry" />
        </mxCell>
        <mxCell id="U1_bPqDhL-kBLZUuURJ5-43" style="edgeStyle=orthogonalEdgeStyle;rounded=0;orthogonalLoop=1;jettySize=auto;html=1;exitX=0.5;exitY=1;exitDx=0;exitDy=0;entryX=0.5;entryY=0;entryDx=0;entryDy=0;" parent="1" source="U1_bPqDhL-kBLZUuURJ5-12" target="U1_bPqDhL-kBLZUuURJ5-13" edge="1">
          <mxGeometry relative="1" as="geometry" />
        </mxCell>
        <mxCell id="U1_bPqDhL-kBLZUuURJ5-12" value="horabinario = bin(hora)" style="rounded=0;whiteSpace=wrap;html=1;" parent="1" vertex="1">
          <mxGeometry x="350" y="780" width="120" height="30" as="geometry" />
        </mxCell>
        <mxCell id="U1_bPqDhL-kBLZUuURJ5-44" style="edgeStyle=orthogonalEdgeStyle;rounded=0;orthogonalLoop=1;jettySize=auto;html=1;exitX=0.5;exitY=1;exitDx=0;exitDy=0;entryX=0.5;entryY=0;entryDx=0;entryDy=0;" parent="1" source="U1_bPqDhL-kBLZUuURJ5-13" target="U1_bPqDhL-kBLZUuURJ5-15" edge="1">
          <mxGeometry relative="1" as="geometry" />
        </mxCell>
        <mxCell id="U1_bPqDhL-kBLZUuURJ5-13" value="minutobinario = bin(minuto)" style="whiteSpace=wrap;html=1;rounded=0;" parent="1" vertex="1">
          <mxGeometry x="340" y="830" width="140" height="30" as="geometry" />
        </mxCell>
        <mxCell id="U1_bPqDhL-kBLZUuURJ5-45" style="edgeStyle=orthogonalEdgeStyle;rounded=0;orthogonalLoop=1;jettySize=auto;html=1;exitX=0.5;exitY=1;exitDx=0;exitDy=0;entryX=0.5;entryY=0;entryDx=0;entryDy=0;" parent="1" source="U1_bPqDhL-kBLZUuURJ5-15" target="U1_bPqDhL-kBLZUuURJ5-16" edge="1">
          <mxGeometry relative="1" as="geometry" />
        </mxCell>
        <mxCell id="U1_bPqDhL-kBLZUuURJ5-15" value="horabinlista = list[bin(horabinario)]" style="rounded=0;whiteSpace=wrap;html=1;" parent="1" vertex="1">
          <mxGeometry x="325" y="880" width="170" height="30" as="geometry" />
        </mxCell>
        <mxCell id="U1_bPqDhL-kBLZUuURJ5-46" style="edgeStyle=orthogonalEdgeStyle;rounded=0;orthogonalLoop=1;jettySize=auto;html=1;exitX=0.5;exitY=1;exitDx=0;exitDy=0;entryX=0.5;entryY=0;entryDx=0;entryDy=0;" parent="1" source="U1_bPqDhL-kBLZUuURJ5-16" target="U1_bPqDhL-kBLZUuURJ5-17" edge="1">
          <mxGeometry relative="1" as="geometry" />
        </mxCell>
        <mxCell id="U1_bPqDhL-kBLZUuURJ5-16" value="minutobinlista = list[bin(minutobinario)]" style="rounded=0;whiteSpace=wrap;html=1;" parent="1" vertex="1">
          <mxGeometry x="315" y="930" width="190" height="30" as="geometry" />
        </mxCell>
        <mxCell id="U1_bPqDhL-kBLZUuURJ5-47" style="edgeStyle=orthogonalEdgeStyle;rounded=0;orthogonalLoop=1;jettySize=auto;html=1;exitX=0.5;exitY=1;exitDx=0;exitDy=0;entryX=0.5;entryY=0;entryDx=0;entryDy=0;" parent="1" source="U1_bPqDhL-kBLZUuURJ5-17" target="U1_bPqDhL-kBLZUuURJ5-18" edge="1">
          <mxGeometry relative="1" as="geometry" />
        </mxCell>
        <mxCell id="U1_bPqDhL-kBLZUuURJ5-17" value="&lt;div&gt;del horabinlista[0]&lt;/div&gt;&lt;div&gt;del horabinlista[0]&lt;/div&gt;&lt;div&gt;del minutobinlista[0]&lt;/div&gt;&lt;div&gt;del minutobinlista[0]&lt;br&gt;&lt;/div&gt;" style="rounded=0;whiteSpace=wrap;html=1;" parent="1" vertex="1">
          <mxGeometry x="350" y="980" width="120" height="60" as="geometry" />
        </mxCell>
        <mxCell id="U1_bPqDhL-kBLZUuURJ5-48" style="edgeStyle=orthogonalEdgeStyle;rounded=0;orthogonalLoop=1;jettySize=auto;html=1;exitX=0.5;exitY=1;exitDx=0;exitDy=0;entryX=0.5;entryY=0;entryDx=0;entryDy=0;" parent="1" source="U1_bPqDhL-kBLZUuURJ5-18" target="U1_bPqDhL-kBLZUuURJ5-20" edge="1">
          <mxGeometry relative="1" as="geometry" />
        </mxCell>
        <mxCell id="U1_bPqDhL-kBLZUuURJ5-18" value="fila1max = 5" style="rounded=0;whiteSpace=wrap;html=1;" parent="1" vertex="1">
          <mxGeometry x="350" y="1060" width="120" height="60" as="geometry" />
        </mxCell>
        <mxCell id="U1_bPqDhL-kBLZUuURJ5-49" style="edgeStyle=orthogonalEdgeStyle;rounded=0;orthogonalLoop=1;jettySize=auto;html=1;exitX=0.5;exitY=1;exitDx=0;exitDy=0;entryX=0.5;entryY=0;entryDx=0;entryDy=0;" parent="1" source="U1_bPqDhL-kBLZUuURJ5-20" target="U1_bPqDhL-kBLZUuURJ5-22" edge="1">
          <mxGeometry relative="1" as="geometry" />
        </mxCell>
        <mxCell id="U1_bPqDhL-kBLZUuURJ5-69" value="False" style="edgeLabel;html=1;align=center;verticalAlign=middle;resizable=0;points=[];" parent="U1_bPqDhL-kBLZUuURJ5-49" vertex="1" connectable="0">
          <mxGeometry x="-0.2667" y="2" relative="1" as="geometry">
            <mxPoint x="-22" as="offset" />
          </mxGeometry>
        </mxCell>
        <mxCell id="U1_bPqDhL-kBLZUuURJ5-53" style="edgeStyle=orthogonalEdgeStyle;rounded=0;orthogonalLoop=1;jettySize=auto;html=1;exitX=1;exitY=0.5;exitDx=0;exitDy=0;entryX=0.5;entryY=0;entryDx=0;entryDy=0;" parent="1" source="U1_bPqDhL-kBLZUuURJ5-20" target="U1_bPqDhL-kBLZUuURJ5-21" edge="1">
          <mxGeometry relative="1" as="geometry" />
        </mxCell>
        <mxCell id="U1_bPqDhL-kBLZUuURJ5-68" value="True" style="edgeLabel;html=1;align=center;verticalAlign=middle;resizable=0;points=[];" parent="U1_bPqDhL-kBLZUuURJ5-53" vertex="1" connectable="0">
          <mxGeometry x="-0.6696" y="1" relative="1" as="geometry">
            <mxPoint y="-9" as="offset" />
          </mxGeometry>
        </mxCell>
        <mxCell id="U1_bPqDhL-kBLZUuURJ5-20" value="fila1max = len(horabinlista)" style="rhombus;whiteSpace=wrap;html=1;" parent="1" vertex="1">
          <mxGeometry x="330" y="1160" width="160" height="80" as="geometry" />
        </mxCell>
        <mxCell id="U1_bPqDhL-kBLZUuURJ5-60" style="edgeStyle=orthogonalEdgeStyle;rounded=0;orthogonalLoop=1;jettySize=auto;html=1;exitX=0.5;exitY=1;exitDx=0;exitDy=0;" parent="1" source="U1_bPqDhL-kBLZUuURJ5-21" edge="1">
          <mxGeometry relative="1" as="geometry">
            <mxPoint x="610" y="1240" as="targetPoint" />
          </mxGeometry>
        </mxCell>
        <mxCell id="U1_bPqDhL-kBLZUuURJ5-62" value="for num in len(horabinlista)" style="edgeLabel;html=1;align=center;verticalAlign=middle;resizable=0;points=[];" parent="U1_bPqDhL-kBLZUuURJ5-60" vertex="1" connectable="0">
          <mxGeometry x="0.08" y="-2" relative="1" as="geometry">
            <mxPoint x="18" y="-25" as="offset" />
          </mxGeometry>
        </mxCell>
        <mxCell id="U1_bPqDhL-kBLZUuURJ5-61" style="edgeStyle=orthogonalEdgeStyle;rounded=0;orthogonalLoop=1;jettySize=auto;html=1;exitX=0.5;exitY=1;exitDx=0;exitDy=0;" parent="1" source="U1_bPqDhL-kBLZUuURJ5-21" edge="1">
          <mxGeometry relative="1" as="geometry">
            <mxPoint x="410" y="1470" as="targetPoint" />
            <Array as="points">
              <mxPoint x="610" y="1470" />
            </Array>
          </mxGeometry>
        </mxCell>
        <mxCell id="U1_bPqDhL-kBLZUuURJ5-21" value="write chr(int(num))" style="rounded=0;whiteSpace=wrap;html=1;" parent="1" vertex="1">
          <mxGeometry x="550" y="1260" width="120" height="30" as="geometry" />
        </mxCell>
        <mxCell id="U1_bPqDhL-kBLZUuURJ5-50" style="edgeStyle=orthogonalEdgeStyle;rounded=0;orthogonalLoop=1;jettySize=auto;html=1;exitX=0.5;exitY=1;exitDx=0;exitDy=0;entryX=0.5;entryY=0;entryDx=0;entryDy=0;" parent="1" source="U1_bPqDhL-kBLZUuURJ5-22" target="U1_bPqDhL-kBLZUuURJ5-23" edge="1">
          <mxGeometry relative="1" as="geometry" />
        </mxCell>
        <mxCell id="U1_bPqDhL-kBLZUuURJ5-22" value="x = fila1max - len(horabinlista)" style="rounded=0;whiteSpace=wrap;html=1;" parent="1" vertex="1">
          <mxGeometry x="350" y="1270" width="120" height="40" as="geometry" />
        </mxCell>
        <mxCell id="U1_bPqDhL-kBLZUuURJ5-51" style="edgeStyle=orthogonalEdgeStyle;rounded=0;orthogonalLoop=1;jettySize=auto;html=1;exitX=0.5;exitY=1;exitDx=0;exitDy=0;entryX=0.5;entryY=0;entryDx=0;entryDy=0;" parent="1" source="U1_bPqDhL-kBLZUuURJ5-23" target="U1_bPqDhL-kBLZUuURJ5-24" edge="1">
          <mxGeometry relative="1" as="geometry" />
        </mxCell>
        <mxCell id="U1_bPqDhL-kBLZUuURJ5-65" style="edgeStyle=orthogonalEdgeStyle;rounded=0;orthogonalLoop=1;jettySize=auto;html=1;exitX=0.5;exitY=1;exitDx=0;exitDy=0;" parent="1" source="U1_bPqDhL-kBLZUuURJ5-23" edge="1">
          <mxGeometry relative="1" as="geometry">
            <mxPoint x="410" y="1330" as="targetPoint" />
            <Array as="points">
              <mxPoint x="410" y="1390" />
              <mxPoint x="490" y="1390" />
              <mxPoint x="490" y="1330" />
            </Array>
          </mxGeometry>
        </mxCell>
        <mxCell id="U1_bPqDhL-kBLZUuURJ5-67" value="for num in range(x)" style="edgeLabel;html=1;align=center;verticalAlign=middle;resizable=0;points=[];" parent="U1_bPqDhL-kBLZUuURJ5-65" vertex="1" connectable="0">
          <mxGeometry x="0.2087" y="-4" relative="1" as="geometry">
            <mxPoint as="offset" />
          </mxGeometry>
        </mxCell>
        <mxCell id="U1_bPqDhL-kBLZUuURJ5-23" value="write chr(0)" style="rounded=0;whiteSpace=wrap;html=1;" parent="1" vertex="1">
          <mxGeometry x="350" y="1350" width="120" height="30" as="geometry" />
        </mxCell>
        <mxCell id="U1_bPqDhL-kBLZUuURJ5-52" style="edgeStyle=orthogonalEdgeStyle;rounded=0;orthogonalLoop=1;jettySize=auto;html=1;exitX=0.5;exitY=1;exitDx=0;exitDy=0;entryX=0.5;entryY=0;entryDx=0;entryDy=0;" parent="1" source="U1_bPqDhL-kBLZUuURJ5-24" target="U1_bPqDhL-kBLZUuURJ5-25" edge="1">
          <mxGeometry relative="1" as="geometry" />
        </mxCell>
        <mxCell id="U1_bPqDhL-kBLZUuURJ5-64" style="edgeStyle=orthogonalEdgeStyle;rounded=0;orthogonalLoop=1;jettySize=auto;html=1;exitX=0.5;exitY=1;exitDx=0;exitDy=0;" parent="1" source="U1_bPqDhL-kBLZUuURJ5-24" edge="1">
          <mxGeometry relative="1" as="geometry">
            <mxPoint x="410" y="1400" as="targetPoint" />
            <Array as="points">
              <mxPoint x="410" y="1460" />
              <mxPoint x="490" y="1460" />
              <mxPoint x="490" y="1400" />
            </Array>
          </mxGeometry>
        </mxCell>
        <mxCell id="U1_bPqDhL-kBLZUuURJ5-66" value="for num in len(horabinlista)" style="edgeLabel;html=1;align=center;verticalAlign=middle;resizable=0;points=[];" parent="U1_bPqDhL-kBLZUuURJ5-64" vertex="1" connectable="0">
          <mxGeometry x="0.1478" y="-2" relative="1" as="geometry">
            <mxPoint x="-17" y="-8" as="offset" />
          </mxGeometry>
        </mxCell>
        <mxCell id="U1_bPqDhL-kBLZUuURJ5-24" value="write chr(int(num))" style="rounded=0;whiteSpace=wrap;html=1;" parent="1" vertex="1">
          <mxGeometry x="350" y="1420" width="120" height="30" as="geometry" />
        </mxCell>
        <mxCell id="U1_bPqDhL-kBLZUuURJ5-54" style="edgeStyle=orthogonalEdgeStyle;rounded=0;orthogonalLoop=1;jettySize=auto;html=1;exitX=0.5;exitY=1;exitDx=0;exitDy=0;entryX=0.5;entryY=0;entryDx=0;entryDy=0;" parent="1" source="U1_bPqDhL-kBLZUuURJ5-25" target="U1_bPqDhL-kBLZUuURJ5-26" edge="1">
          <mxGeometry relative="1" as="geometry" />
        </mxCell>
        <mxCell id="U1_bPqDhL-kBLZUuURJ5-25" value="fila2max = 6" style="rounded=0;whiteSpace=wrap;html=1;" parent="1" vertex="1">
          <mxGeometry x="350" y="1490" width="120" height="60" as="geometry" />
        </mxCell>
        <mxCell id="U1_bPqDhL-kBLZUuURJ5-55" style="edgeStyle=orthogonalEdgeStyle;rounded=0;orthogonalLoop=1;jettySize=auto;html=1;exitX=0.5;exitY=1;exitDx=0;exitDy=0;entryX=0.5;entryY=0;entryDx=0;entryDy=0;" parent="1" source="U1_bPqDhL-kBLZUuURJ5-26" target="U1_bPqDhL-kBLZUuURJ5-28" edge="1">
          <mxGeometry relative="1" as="geometry" />
        </mxCell>
        <mxCell id="U1_bPqDhL-kBLZUuURJ5-71" value="False" style="edgeLabel;html=1;align=center;verticalAlign=middle;resizable=0;points=[];" parent="U1_bPqDhL-kBLZUuURJ5-55" vertex="1" connectable="0">
          <mxGeometry x="-0.4" y="1" relative="1" as="geometry">
            <mxPoint x="-21" as="offset" />
          </mxGeometry>
        </mxCell>
        <mxCell id="U1_bPqDhL-kBLZUuURJ5-59" style="edgeStyle=orthogonalEdgeStyle;rounded=0;orthogonalLoop=1;jettySize=auto;html=1;exitX=1;exitY=0.5;exitDx=0;exitDy=0;entryX=0.5;entryY=0;entryDx=0;entryDy=0;" parent="1" source="U1_bPqDhL-kBLZUuURJ5-26" target="U1_bPqDhL-kBLZUuURJ5-27" edge="1">
          <mxGeometry relative="1" as="geometry" />
        </mxCell>
        <mxCell id="U1_bPqDhL-kBLZUuURJ5-70" value="True" style="edgeLabel;html=1;align=center;verticalAlign=middle;resizable=0;points=[];" parent="U1_bPqDhL-kBLZUuURJ5-59" vertex="1" connectable="0">
          <mxGeometry x="-0.5565" y="1" relative="1" as="geometry">
            <mxPoint y="-9" as="offset" />
          </mxGeometry>
        </mxCell>
        <mxCell id="U1_bPqDhL-kBLZUuURJ5-26" value="fila2max = len(minutobinlista)" style="rhombus;whiteSpace=wrap;html=1;" parent="1" vertex="1">
          <mxGeometry x="330" y="1590" width="160" height="80" as="geometry" />
        </mxCell>
        <mxCell id="U1_bPqDhL-kBLZUuURJ5-74" style="edgeStyle=orthogonalEdgeStyle;rounded=0;orthogonalLoop=1;jettySize=auto;html=1;exitX=0.5;exitY=1;exitDx=0;exitDy=0;" parent="1" source="U1_bPqDhL-kBLZUuURJ5-27" edge="1">
          <mxGeometry relative="1" as="geometry">
            <mxPoint x="410" y="1900" as="targetPoint" />
            <Array as="points">
              <mxPoint x="610" y="1900" />
            </Array>
          </mxGeometry>
        </mxCell>
        <mxCell id="U1_bPqDhL-kBLZUuURJ5-75" style="edgeStyle=orthogonalEdgeStyle;rounded=0;orthogonalLoop=1;jettySize=auto;html=1;exitX=0.5;exitY=1;exitDx=0;exitDy=0;" parent="1" source="U1_bPqDhL-kBLZUuURJ5-27" edge="1">
          <mxGeometry relative="1" as="geometry">
            <mxPoint x="610" y="1680" as="targetPoint" />
          </mxGeometry>
        </mxCell>
        <mxCell id="U1_bPqDhL-kBLZUuURJ5-76" value="for num in len(minutobinlista)" style="edgeLabel;html=1;align=center;verticalAlign=middle;resizable=0;points=[];" parent="U1_bPqDhL-kBLZUuURJ5-75" vertex="1" connectable="0">
          <mxGeometry x="0.232" y="-2" relative="1" as="geometry">
            <mxPoint y="-6" as="offset" />
          </mxGeometry>
        </mxCell>
        <mxCell id="U1_bPqDhL-kBLZUuURJ5-27" value="write chr(int(num))" style="rounded=0;whiteSpace=wrap;html=1;" parent="1" vertex="1">
          <mxGeometry x="550" y="1700" width="120" height="30" as="geometry" />
        </mxCell>
        <mxCell id="U1_bPqDhL-kBLZUuURJ5-56" style="edgeStyle=orthogonalEdgeStyle;rounded=0;orthogonalLoop=1;jettySize=auto;html=1;exitX=0.5;exitY=1;exitDx=0;exitDy=0;entryX=0.5;entryY=0;entryDx=0;entryDy=0;" parent="1" source="U1_bPqDhL-kBLZUuURJ5-28" target="U1_bPqDhL-kBLZUuURJ5-29" edge="1">
          <mxGeometry relative="1" as="geometry" />
        </mxCell>
        <mxCell id="U1_bPqDhL-kBLZUuURJ5-28" value="y = fila2max - len(minutobinlista)" style="rounded=0;whiteSpace=wrap;html=1;" parent="1" vertex="1">
          <mxGeometry x="350" y="1700" width="120" height="40" as="geometry" />
        </mxCell>
        <mxCell id="U1_bPqDhL-kBLZUuURJ5-57" style="edgeStyle=orthogonalEdgeStyle;rounded=0;orthogonalLoop=1;jettySize=auto;html=1;exitX=0.5;exitY=1;exitDx=0;exitDy=0;entryX=0.5;entryY=0;entryDx=0;entryDy=0;" parent="1" source="U1_bPqDhL-kBLZUuURJ5-29" target="U1_bPqDhL-kBLZUuURJ5-30" edge="1">
          <mxGeometry relative="1" as="geometry" />
        </mxCell>
        <mxCell id="U1_bPqDhL-kBLZUuURJ5-73" style="edgeStyle=orthogonalEdgeStyle;rounded=0;orthogonalLoop=1;jettySize=auto;html=1;exitX=0.5;exitY=1;exitDx=0;exitDy=0;" parent="1" source="U1_bPqDhL-kBLZUuURJ5-29" edge="1">
          <mxGeometry relative="1" as="geometry">
            <mxPoint x="410" y="1760" as="targetPoint" />
            <Array as="points">
              <mxPoint x="410" y="1820" />
              <mxPoint x="490" y="1820" />
              <mxPoint x="490" y="1760" />
            </Array>
          </mxGeometry>
        </mxCell>
        <mxCell id="U1_bPqDhL-kBLZUuURJ5-78" value="for num in range(y)" style="edgeLabel;html=1;align=center;verticalAlign=middle;resizable=0;points=[];" parent="U1_bPqDhL-kBLZUuURJ5-73" vertex="1" connectable="0">
          <mxGeometry x="0.2" relative="1" as="geometry">
            <mxPoint as="offset" />
          </mxGeometry>
        </mxCell>
        <mxCell id="U1_bPqDhL-kBLZUuURJ5-29" value="write chr(0)" style="rounded=0;whiteSpace=wrap;html=1;" parent="1" vertex="1">
          <mxGeometry x="350" y="1780" width="120" height="30" as="geometry" />
        </mxCell>
        <mxCell id="U1_bPqDhL-kBLZUuURJ5-58" style="edgeStyle=orthogonalEdgeStyle;rounded=0;orthogonalLoop=1;jettySize=auto;html=1;exitX=0.5;exitY=1;exitDx=0;exitDy=0;entryX=0.5;entryY=0;entryDx=0;entryDy=0;" parent="1" source="U1_bPqDhL-kBLZUuURJ5-30" target="U1_bPqDhL-kBLZUuURJ5-31" edge="1">
          <mxGeometry relative="1" as="geometry" />
        </mxCell>
        <mxCell id="U1_bPqDhL-kBLZUuURJ5-72" style="edgeStyle=orthogonalEdgeStyle;rounded=0;orthogonalLoop=1;jettySize=auto;html=1;exitX=0.5;exitY=1;exitDx=0;exitDy=0;" parent="1" source="U1_bPqDhL-kBLZUuURJ5-30" edge="1">
          <mxGeometry relative="1" as="geometry">
            <mxPoint x="410" y="1830" as="targetPoint" />
            <Array as="points">
              <mxPoint x="410" y="1890" />
              <mxPoint x="490" y="1890" />
              <mxPoint x="490" y="1830" />
            </Array>
          </mxGeometry>
        </mxCell>
        <mxCell id="U1_bPqDhL-kBLZUuURJ5-77" value="for num in len(minutobinlista)" style="edgeLabel;html=1;align=center;verticalAlign=middle;resizable=0;points=[];" parent="U1_bPqDhL-kBLZUuURJ5-72" vertex="1" connectable="0">
          <mxGeometry x="0.2087" y="-1" relative="1" as="geometry">
            <mxPoint as="offset" />
          </mxGeometry>
        </mxCell>
        <mxCell id="U1_bPqDhL-kBLZUuURJ5-30" value="write chr(int(num))" style="rounded=0;whiteSpace=wrap;html=1;" parent="1" vertex="1">
          <mxGeometry x="350" y="1850" width="120" height="30" as="geometry" />
        </mxCell>
        <mxCell id="U1_bPqDhL-kBLZUuURJ5-31" value="End" style="ellipse;whiteSpace=wrap;html=1;" parent="1" vertex="1">
          <mxGeometry x="365" y="1920" width="90" height="40" as="geometry" />
        </mxCell>
      </root>
    </mxGraphModel>
  </diagram>
</mxfile>
